<?xml version="1.0" encoding="UTF-8" standalone="no"?>
<svg
   version="1.0"
   width="200.000000pt"
   height="200.000000pt"
   viewBox="0 0 200.000000 200.000000"
   preserveAspectRatio="xMidYMid meet"
   id="svg1"
   sodipodi:docname="2789-200.svg"
   inkscape:version="1.4.2 (f4327f4, 2025-05-13)"
   xmlns:inkscape="http://www.inkscape.org/namespaces/inkscape"
   xmlns:sodipodi="http://sodipodi.sourceforge.net/DTD/sodipodi-0.dtd"
   xmlns="http://www.w3.org/2000/svg"
   xmlns:svg="http://www.w3.org/2000/svg">
  <defs
     id="defs1" />
  <sodipodi:namedview
     id="namedview1"
     pagecolor="#ffffff"
     bordercolor="#000000"
     borderopacity="0.25"
     inkscape:showpageshadow="2"
     inkscape:pageopacity="0.0"
     inkscape:pagecheckerboard="0"
     inkscape:deskcolor="#d1d1d1"
     inkscape:document-units="pt"
     inkscape:zoom="2.93625"
     inkscape:cx="133.33333"
     inkscape:cy="133.33333"
     inkscape:window-width="1920"
     inkscape:window-height="1001"
     inkscape:window-x="-9"
     inkscape:window-y="-9"
     inkscape:window-maximized="1"
     inkscape:current-layer="svg1" />
  <g
     transform="translate(0.000000,200.000000) scale(0.100000,-0.100000)"
     fill="#000000"
     stroke="none"
     id="g1">
    <path
       d="M811 1851 c-61 -145 -63 -149 -101 -161 -37 -12 -44 -10 -185 46 l-146 58 -88 -90 -89 -89 60 -143 c58 -139 60 -145 48 -182 -13 -38 -16 -40 -161 -102 l-149 -63 0 -126 0 -127 42 -17 c236 -94 254 -104 268 -144 12 -38 10 -45 -46 -186 l-58 -146 90 -88 89 -89 144 61 c142 59 145 60 184 46 38 -14 40 -17 101 -161 l61 -148 126 0 127 0 17 42 c9 24 37 91 62 150 43 103 47 108 83 119 36 11 47 8 184 -47 l147 -58 88 88 89 88 -56 132 c-64 154 -69 174 -49 212 13 24 41 39 161 89 l146 60 0 126 0 127 -42 17 c-253 101 -278 116 -278 173 0 9 26 81 57 160 l57 143 -90 88 -89 89 -144 -61 c-142 -59 -145 -60 -184 -46 -39 14 -41 17 -101 161 l-61 147 -126 1 -126 0 -62 -149z m352 -516 c71 -35 140 -107 175 -183 23 -49 27 -70 27 -152 0 -82 -4 -103 -27 -152 -35 -76 -104 -148 -175 -184 -53 -26 -67 -29 -163 -29 -96 0 -110 3 -164 29 -151 74 -237 241 -206 398 27 138 102 231 229 285 48 20 69 23 151 21 82 -3 104 -8 153 -33z"
       id="path1" />
  </g>
  <circle
     style="fill:#000000;stroke:#000000;stroke-width:1.13386;fill-opacity:1"
     id="path2"
     cx="101.02171"
     cy="102.04343"
     r="45.33844" />
</svg>
